<?xml version="1.0" standalone="no"?>
<!DOCTYPE svg PUBLIC "-//W3C//DTD SVG 20010904//EN"
 "http://www.w3.org/TR/2001/REC-SVG-20010904/DTD/svg10.dtd">
<svg version="1.0" xmlns="http://www.w3.org/2000/svg"
 width="3780.000000pt" height="1890.000000pt" viewBox="0 0 3780.000000 1890.000000"
 preserveAspectRatio="xMidYMid meet">

<g transform="translate(0.000000,1890.000000) scale(0.100000,-0.100000)"
fill="#000000" stroke="none">
<path d="M20843 11649 c-235 -293 -486 -604 -558 -693 -618 -767 -1062 -1318
-1130 -1401 -45 -55 -175 -217 -290 -360 -115 -143 -407 -505 -649 -805 -511
-634 -708 -878 -1055 -1309 l-253 -314 23 -18 c13 -10 29 -17 34 -16 10 4 77
85 835 1027 245 304 477 592 516 639 38 47 277 343 529 656 253 314 537 667
633 785 95 118 260 323 366 455 202 252 391 485 561 695 109 135 291 361 560
695 93 116 207 257 254 315 46 58 90 112 97 121 12 13 10 18 -15 37 l-30 22
-428 -531z"/>
<path d="M8500 11350 c0 -16 8 -19 63 -22 l62 -3 3 -452 2 -453 -65 0 c-58 0
-65 -2 -65 -20 0 -19 7 -20 201 -20 179 0 200 2 195 16 -3 9 -6 18 -6 20 0 2
-27 4 -60 4 l-60 0 0 193 0 193 39 38 c22 21 44 36 49 32 5 -3 95 -116 198
-251 l189 -245 113 0 c103 0 113 2 110 18 -2 12 -16 19 -43 22 -39 5 -45 12
-252 280 -116 151 -212 278 -212 281 -1 9 329 313 353 325 11 6 38 14 59 18
28 5 37 12 37 26 0 19 -8 20 -145 20 -138 0 -145 -1 -145 -20 0 -17 7 -20 43
-21 23 -1 47 -1 54 0 6 1 14 -2 17 -7 4 -8 -416 -404 -451 -425 -11 -7 -13 32
-13 213 l0 220 65 0 c58 0 65 2 65 20 0 19 -7 20 -200 20 -192 0 -200 -1 -200
-20z"/>
<path d="M9770 11351 c0 -25 13 -29 77 -24 l51 5 4 -344 c4 -322 5 -347 26
-402 55 -151 167 -219 357 -220 168 0 264 49 322 164 44 88 53 172 53 518 l0
283 48 -1 c76 -3 82 -1 82 20 0 19 -7 20 -160 20 -153 0 -160 -1 -160 -20 0
-17 7 -20 49 -20 88 0 81 25 81 -314 0 -165 -5 -330 -10 -365 -13 -77 -48
-149 -90 -185 -94 -79 -297 -70 -377 16 -68 73 -86 200 -81 593 l3 250 60 0
c44 0 62 4 66 15 4 8 5 18 2 23 -2 4 -94 7 -204 7 -189 0 -199 -1 -199 -19z"/>
<path d="M11130 11351 c0 -18 8 -20 63 -23 l62 -3 3 -452 2 -453 -65 0 c-58 0
-65 -2 -65 -20 0 -19 7 -20 165 -20 161 0 165 1 155 20 -8 15 -23 20 -68 22
l-57 3 -3 343 c-1 188 1 342 5 342 5 0 87 -167 183 -370 142 -300 178 -370
193 -368 13 2 65 107 195 398 98 217 183 406 189 420 9 20 12 -62 12 -372 l1
-398 -65 0 c-58 0 -65 -2 -65 -20 0 -19 7 -20 196 -20 181 0 195 1 192 18 -3
14 -16 18 -66 20 l-62 3 2 452 3 452 63 3 c54 3 62 5 62 23 0 19 -6 19 -131
17 l-131 -3 -152 -345 c-84 -190 -164 -370 -177 -400 l-26 -55 -59 125 c-32
69 -118 249 -190 400 l-130 275 -117 3 c-111 2 -117 2 -117 -17z"/>
<path d="M13167 11363 c-3 -6 -278 -707 -364 -930 -3 -8 -24 -13 -54 -13 -42
0 -49 -3 -49 -20 0 -19 7 -20 145 -20 80 0 145 4 145 8 0 20 -28 32 -72 32
-32 0 -48 4 -47 13 0 6 26 77 57 157 l58 145 174 3 175 2 58 -152 c31 -84 57
-156 57 -160 0 -5 -22 -8 -50 -8 -43 0 -50 -3 -50 -20 0 -19 7 -20 176 -20
162 0 175 1 172 18 -2 12 -16 18 -48 22 l-45 5 -188 473 c-187 468 -189 472
-217 472 -16 0 -31 -3 -33 -7z m65 -361 c37 -97 70 -185 74 -194 6 -17 -5 -18
-146 -18 -117 0 -151 3 -148 13 49 134 144 377 148 377 3 0 35 -80 72 -178z"/>
<path d="M14050 11351 c0 -19 6 -21 65 -21 l65 0 0 -455 0 -455 -65 0 c-58 0
-65 -2 -65 -20 0 -19 7 -20 200 -20 192 0 200 1 200 20 0 16 -8 19 -62 22
l-63 3 -3 203 -2 203 82 -3 83 -3 130 -222 129 -223 124 0 c112 0 123 2 120
18 -2 13 -15 18 -50 20 l-46 3 -131 210 c-72 115 -131 211 -131 213 0 2 20 11
44 20 109 42 174 121 183 226 8 82 -14 137 -78 194 -84 76 -103 79 -436 84
-291 4 -293 3 -293 -17z m544 -49 c126 -56 150 -260 44 -363 -48 -45 -96 -59
-210 -59 l-108 0 0 218 c0 120 3 222 8 227 14 15 218 -2 266 -23z"/>
<path d="M15730 11324 c-11 -25 -20 -47 -20 -49 0 -2 -66 -172 -146 -377 -80
-205 -155 -397 -166 -425 l-19 -53 -54 0 c-45 0 -53 -3 -51 -17 3 -16 19 -18
149 -21 81 -1 147 1 147 6 0 20 -28 32 -72 32 -32 0 -48 4 -47 13 0 6 26 77
57 157 l58 145 174 3 175 2 58 -152 c31 -84 57 -156 57 -160 0 -5 -22 -8 -50
-8 -43 0 -50 -3 -50 -20 0 -19 7 -20 176 -20 162 0 175 1 172 18 -2 12 -16 18
-48 22 l-45 5 -188 473 -189 472 -29 0 c-26 0 -32 -6 -49 -46z m89 -341 c39
-100 71 -184 71 -187 0 -4 -68 -6 -151 -6 -117 0 -150 3 -147 13 42 121 145
374 150 369 3 -4 38 -89 77 -189z"/>
<path d="M18920 8288 c0 -21 4 -23 62 -23 l63 0 5 -350 c5 -331 7 -353 27
-405 13 -30 36 -72 53 -92 67 -81 229 -129 368 -110 140 20 227 83 273 198 23
57 24 71 29 409 l5 350 63 0 c58 0 62 2 62 23 0 22 -1 22 -160 22 -153 0 -160
-1 -160 -20 0 -13 7 -20 20 -21 11 0 39 -2 63 -2 l42 -2 0 -355 c0 -353 0
-355 -24 -408 -57 -127 -196 -182 -347 -137 -89 26 -144 98 -164 216 -7 40
-10 182 -8 374 l3 310 63 3 c54 3 62 6 62 22 0 19 -8 20 -200 20 l-200 0 0
-22z"/>
<path d="M20290 8291 c0 -18 7 -20 63 -23 l62 -3 3 -452 2 -453 -65 0 c-58 0
-65 -2 -65 -20 0 -19 7 -20 220 -20 121 0 220 4 220 8 0 22 -29 32 -97 32
l-73 0 0 200 0 200 128 0 c133 0 197 12 268 48 56 29 111 95 129 156 42 140
-18 264 -151 317 -56 22 -73 23 -351 27 -289 4 -293 3 -293 -17z m541 -44 c44
-18 85 -66 100 -116 16 -53 7 -177 -15 -224 -36 -74 -121 -107 -277 -107 l-79
0 0 229 c0 174 3 231 13 235 23 11 223 -2 258 -17z"/>
<path d="M21735 7878 c-227 -585 -194 -518 -255 -518 -43 0 -50 -3 -50 -20 0
-19 7 -20 146 -20 133 0 145 1 142 18 -2 13 -15 18 -61 20 -31 2 -57 4 -57 6
0 1 27 71 60 156 33 85 60 155 60 157 0 2 78 3 174 3 l174 0 48 -122 c25 -68
53 -138 60 -157 8 -18 14 -35 14 -37 0 -2 -25 -4 -55 -4 -48 0 -55 -2 -55 -20
0 -19 7 -20 181 -20 161 0 180 2 175 16 -3 9 -6 18 -6 20 0 2 -20 4 -44 4
l-44 0 -189 473 c-188 470 -189 472 -219 475 l-30 3 -169 -433z m223 87 c28
-71 60 -154 71 -182 l21 -53 -154 0 -154 0 29 78 c104 271 122 314 129 301 5
-8 31 -72 58 -144z"/>
<path d="M22790 8290 c0 -17 7 -20 50 -21 28 -1 56 -2 63 -3 9 -1 13 -100 15
-453 l2 -453 -65 0 c-59 0 -65 -2 -65 -21 0 -20 2 -21 288 -17 265 4 291 6
346 26 221 82 345 285 321 526 -17 177 -104 308 -251 377 -104 50 -172 59
-451 59 -246 0 -253 -1 -253 -20z m498 -30 c171 -19 253 -102 288 -290 36
-199 1 -404 -88 -504 -70 -80 -150 -106 -330 -106 l-98 0 0 448 c0 247 2 451
5 454 10 9 136 8 223 -2z"/>
<path d="M24190 8287 c0 -20 4 -22 40 -19 22 2 51 1 65 -2 l25 -6 0 -450 0
-450 -65 0 c-58 0 -65 -2 -65 -20 0 -19 7 -20 201 -20 179 0 200 2 195 16 -3
9 -6 18 -6 20 0 2 -27 4 -60 4 l-60 0 0 225 0 225 250 0 250 0 0 -215 c0 -118
1 -218 3 -222 1 -5 -28 -9 -65 -11 -60 -3 -68 -5 -68 -22 0 -19 8 -20 205 -20
113 0 205 4 205 8 0 20 -28 32 -77 32 l-53 0 2 453 3 452 45 2 c25 1 53 2 63
2 10 1 17 9 17 21 0 19 -7 20 -206 20 l-205 0 3 -22 c3 -20 8 -22 66 -19 l62
2 0 -210 0 -211 -250 0 -250 0 2 208 3 207 63 3 c54 3 62 6 62 22 0 19 -8 20
-200 20 l-200 0 0 -23z"/>
<path d="M26057 8303 c-3 -5 -48 -118 -100 -253 -53 -135 -125 -321 -162 -415
-37 -93 -76 -194 -87 -222 l-19 -53 -53 0 c-45 0 -52 -3 -53 -20 -2 -19 4 -20
148 -20 82 0 149 4 149 8 0 20 -28 32 -72 32 -26 0 -48 3 -48 8 0 4 26 76 57
159 l58 153 175 0 175 0 58 -153 c31 -83 57 -155 57 -159 0 -5 -22 -8 -50 -8
-43 0 -50 -3 -50 -20 0 -19 7 -20 176 -20 162 0 175 1 172 18 -2 12 -16 18
-48 22 l-45 5 -188 473 c-187 468 -189 472 -217 472 -16 0 -31 -3 -33 -7z m72
-380 c39 -100 71 -184 71 -187 0 -4 -68 -6 -151 -6 -117 0 -150 3 -147 13 43
123 145 374 150 369 4 -4 39 -89 77 -189z"/>
<path d="M26870 8290 c0 -16 7 -20 33 -20 18 0 41 -6 50 -12 9 -7 84 -134 167
-282 l150 -270 -2 -170 -3 -171 -62 -3 c-55 -3 -63 -6 -63 -22 0 -19 8 -20
200 -20 110 0 200 4 200 8 0 20 -28 32 -77 32 l-53 0 0 188 0 187 121 240 c67
132 131 250 144 261 13 12 40 25 62 29 35 6 52 19 53 38 0 4 -66 6 -147 5
-131 -3 -148 -5 -151 -20 -3 -16 5 -18 57 -18 33 0 62 -4 65 -8 5 -9 -233
-476 -240 -470 -9 10 -254 463 -254 471 0 5 21 8 48 7 69 -3 72 -2 72 20 0 19
-7 20 -185 20 -178 0 -185 -1 -185 -20z"/>
<path d="M28375 7878 c-227 -585 -194 -518 -255 -518 -43 0 -50 -3 -50 -20 0
-19 7 -20 146 -20 133 0 145 1 142 18 -2 13 -15 18 -61 20 -31 2 -57 4 -57 6
0 1 27 71 60 156 33 85 60 155 60 157 0 2 78 3 174 3 l174 0 48 -122 c25 -68
53 -138 60 -157 8 -18 14 -35 14 -37 0 -2 -25 -4 -55 -4 -48 0 -55 -2 -55 -20
0 -19 7 -20 181 -20 161 0 180 2 175 16 -3 9 -6 18 -6 20 0 2 -20 4 -44 4
l-44 0 -189 473 c-188 470 -189 472 -219 475 l-30 3 -169 -433z m223 87 c28
-71 60 -154 71 -182 l21 -53 -154 0 -154 0 29 78 c104 271 122 314 129 301 5
-8 31 -72 58 -144z"/>
<path d="M29350 8291 c0 -17 8 -20 47 -23 l46 -3 154 -274 153 -274 0 -179 0
-178 -65 0 c-58 0 -65 -2 -65 -20 0 -19 7 -20 201 -20 186 0 200 1 197 18 -3
14 -16 18 -66 20 l-62 3 0 182 0 181 121 241 c67 132 131 250 142 262 11 13
41 29 66 36 29 8 47 19 49 30 3 15 -10 17 -142 17 -145 0 -146 0 -146 -22 0
-21 4 -23 50 -20 28 2 57 2 64 -1 10 -4 -18 -67 -106 -236 -66 -127 -123 -231
-128 -231 -6 0 -242 422 -259 463 -2 5 23 7 58 5 58 -4 61 -3 61 19 l0 23
-185 0 c-177 0 -185 -1 -185 -19z"/>
<path d="M30570 8290 c0 -13 7 -20 20 -21 11 0 39 -2 63 -2 l42 -2 6 -340 c5
-316 7 -344 27 -399 55 -150 166 -219 357 -220 154 0 256 46 311 140 51 88 56
123 63 484 l6 335 50 2 c28 1 56 2 63 2 6 1 12 10 12 21 0 19 -7 20 -160 20
-153 0 -160 -1 -160 -20 0 -17 7 -20 50 -21 28 -1 56 -2 63 -3 9 -1 12 -77 12
-346 -1 -336 -1 -346 -24 -403 -43 -109 -104 -154 -220 -164 -83 -7 -167 15
-215 57 -47 42 -76 116 -87 224 -12 129 -12 626 1 627 6 1 15 3 20 4 6 1 32 3
59 4 41 1 49 4 47 19 -3 15 -21 17 -204 20 -197 2 -202 2 -202 -18z"/>
<path d="M31940 8290 c0 -11 3 -20 8 -21 4 0 32 -1 62 -2 l55 -2 3 -452 2
-453 -65 0 c-58 0 -65 -2 -65 -20 0 -20 7 -20 359 -20 l358 0 6 83 c4 45 7
119 7 165 0 72 -2 83 -17 80 -11 -2 -23 -28 -38 -83 -26 -97 -45 -135 -85
-168 -39 -33 -70 -39 -205 -35 l-110 3 -3 444 c-2 349 1 446 10 453 7 5 38 7
68 6 50 -2 55 0 58 20 l3 22 -205 0 c-199 0 -206 -1 -206 -20z"/>
<path d="M33259 7838 l-185 -473 -52 -3 c-44 -3 -52 -6 -52 -23 0 -18 8 -19
146 -19 133 0 145 1 142 18 -2 13 -15 18 -61 20 -51 3 -58 5 -52 20 12 29 76
194 97 250 l19 52 175 0 c96 0 174 -1 174 -3 0 -2 27 -72 60 -157 33 -85 60
-155 60 -157 0 -2 -25 -3 -55 -3 -48 0 -55 -2 -55 -20 0 -19 7 -20 181 -20
161 0 180 2 175 16 -3 9 -6 18 -6 20 0 2 -20 4 -44 4 l-44 0 -189 473 c-188
470 -189 472 -219 475 l-30 3 -185 -473z m239 127 c27 -71 59 -154 71 -182
l21 -53 -154 0 -154 0 29 78 c104 272 122 314 129 301 5 -8 31 -72 58 -144z"/>
</g>
</svg>
